# xmcd CD database file
#
# Track frame offsets:
#	150
#	54945
#	108203
#	159911
#	210611
#
# Disc length: 3092 seconds
#
# Revision: 0
# Processed by: cddbd v1.5.2PL0 Copyright (c) Steve Scherf et al.
# Submitted via: CDex 1.51
#
DISCID=330c1205
DTITLE=Art Blakey and the Messengers - A Day with Art Blakey 2
DYEAR=1961
DGENRE=Jazz
TTITLE0=Nelly Bly
TTITLE1=Dat Dere
TTITLE2=Round about midnight
TTITLE3=A night in Tunisia
TTITLE4=The theme
EXTD=YEAR: 1961
EXTT0=
EXTT1=
EXTT2=
EXTT3=
EXTT4=
PLAYORDER=
